PathFileType	4	(X/Y/Z)	Run_300 02
DataRate	CameraRate	NumFrames	NumMarkers	Units	OrigDataRate	OrigDataStartFrame	OrigNumFrames
100	100	4	45	mm	100	27	137
Frame#	Time	LASI			RASI			LPSI			RPSI			RTH1			RTH2			RTH3			LTH1			LTH2			LTH3			RTB1			RTB2			RTB3			RLMAL			RMMAL			LTB1			LTB2			LTB3			RCAL			RTOE			RMT5			LCAL			LTOE			LMT5			LACR			RACR			CLAV			C7			LPSH			RUA1			RUA2			RUA3			RLEL			RMEL			LUA1			LUA2			LUA3			LLEL			LMEL			RFAsuperior			RFAradius			RFAulna			LFAsuperior			LFAradius			LFAulna			
		X1	Y1	Z1	X2	Y2	Z2	X3	Y3	Z3	X4	Y4	Z4	X5	Y5	Z5	X6	Y6	Z6	X7	Y7	Z7	X8	Y8	Z8	X9	Y9	Z9	X10	Y10	Z10	X11	Y11	Z11	X12	Y12	Z12	X13	Y13	Z13	X14	Y14	Z14	X15	Y15	Z15	X16	Y16	Z16	X17	Y17	Z17	X18	Y18	Z18	X19	Y19	Z19	X20	Y20	Z20	X21	Y21	Z21	X22	Y22	Z22	X23	Y23	Z23	X24	Y24	Z24	X25	Y25	Z25	X26	Y26	Z26	X27	Y27	Z27	X28	Y28	Z28	X29	Y29	Z29	X30	Y30	Z30	X31	Y31	Z31	X32	Y32	Z32	X33	Y33	Z33	X34	Y34	Z34	X35	Y35	Z35	X36	Y36	Z36	X37	Y37	Z37	X38	Y38	Z38	X39	Y39	Z39	X40	Y40	Z40	X41	Y41	Z41	X42	Y42	Z42	X43	Y43	Z43	X44	Y44	Z44	X45	Y45	Z45	

27	0.72	953.2826219999999	1096.084937	-430.263656	967.772104	1081.927088	-201.506161	796.475632	1138.127285	-355.501267	801.0833689999999	1132.997973	-265.351382	798.745152	846.21482	-149.9817	840.509752	759.092924	-181.151602	737.1154780000001	690.089684	-182.111901	907.0746789999999	882.85697	-475.340668	1022.299728	813.203267	-471.188389	1011.937891	703.329689	-451.169677	661.784439	446.41353	-232.507247	592.37213	421.550502	-194.316316	545.205964	302.16946	-245.214309	447.949455	230.661936	-235.914622	482.937892	236.987319	-312.204194	1087.438712	481.998907	-422.452945	987.98574	392.262151	-440.988386	1040.969315	295.123219	-401.005689	398.694417	262.586977	-301.023182	516.470999	77.630878	-289.188852	454.30979	104.67723	-220.912287	920.457088	163.120085	-344.536996	1136.28321	110.89042	-378.159606	1071.094162	99.218739	-441.555068	891.034806	1601.810186	-452.094713	952.162438	1569.914935	-145.194652	998.992763	1518.569434	-290.840191	888.433103	1609.289069	-289.748039	806.5917470000001	1578.533704	-437.662839	930.071804	1421.269693	-53.665732	852.980266	1370.105409	-41.540618	872.140863	1313.274572	-5.620838	894.99742	1246.653143	8.391283	831.584568	1236.29584	-58.975642	769.474123	1524.198744	-492.435239	698.92344	1472.96639	-454.783223	671.062956	1439.032613	-516.3309829999999	634.55522	1366.04189	-539.105276	629.195197	1359.225378	-448.129067	941.706218	1219.403933	-48.83114	1058.983683	1327.943843	-172.535025	1053.336403	1261.926096	-190.706388	696.941788	1294.106494	-516.520399	870.38973	1309.668365	-495.716949	855.826505	1243.077468	-500.005411	
28	0.73	955.388746	1098.694528	-429.480521	969.350592	1085.481344	-200.968747	798.889549	1141.253147	-355.733625	803.27916	1136.314742	-265.038902	798.975926	850.656519	-149.877553	841.377562	762.761705	-181.603495	738.333713	693.827669	-182.351761	904.815333	883.278194	-473.515716	1017.281604	811.0929630000001	-471.061346	1005.361884	701.426302	-451.442907	657.000658	451.839797	-233.10706	587.133634	429.7287	-194.467044	534.064585	312.952046	-244.526565	433.43377	246.633921	-234.804177	469.164721	250.020089	-310.706332	1090.108653	480.207482	-422.553724	999.287434	382.007062	-439.349222	1060.403258	290.304408	-398.747318	388.022365	281.091441	-300.487475	495.569516	85.4892	-285.072325	433.011595	120.976802	-218.278426	951.377969	150.003025	-341.127258	1171.1588	114.317427	-371.443669	1107.763991	95.559656	-435.094542	891.0590539999999	1604.794904	-452.851548	952.8921810000001	1573.481497	-146.735153	999.70046	1521.868223	-292.188668	889.1820310000001	1611.967157	-291.081408	806.832359	1581.941433	-437.280778	931.6719890000001	1425.206282	-55.323086	854.508297	1374.309645	-42.371646	873.968763	1317.247824	-6.841956	896.668443	1250.291042	7.051332	831.8558849999999	1240.378839	-59.642074	768.520957	1528.736795	-490.558019	699.170495	1477.79336	-450.445323	669.25036	1443.819024	-510.987602	631.3344990000001	1370.626589	-532.354255	628.460504	1364.420544	-441.334651	942.4379	1224.003672	-51.062448	1056.513924	1334.74319	-175.984198	1051.987877	1268.576504	-193.740494	694.384712	1298.72515	-511.162456	868.358682	1314.536894	-494.809354	853.810918	1247.913114	-498.387324	
29	0.74	957.381631	1099.953414	-428.222905	970.473704	1088.428585	-199.881718	800.622369	1142.854259	-355.668722	804.896071	1138.441436	-264.532594	801.45958	852.769242	-149.465857	844.978916	764.559961	-183.82865	742.4828199999999	695.123166	-182.818722	902.002783	882.8028849999999	-472.158391	1012.399059	807.82633	-470.758893	998.606556	698.10444	-453.386065	653.737076	455.928531	-233.758645	582.867686	437.573568	-194.977788	523.424457	323.995138	-243.859852	418.907931	263.68122	-234.142086	455.768892	263.497091	-309.583356	1091.297377	477.825905	-422.932759	1008.824438	372.664429	-436.717971	1077.612384	286.60217	-396.21524	376.990424	299.267876	-301.276515	474.152081	97.058116	-279.591046	412.054954	138.997881	-214.708338	979.961258	140.912535	-337.012027	1201.793818	117.785616	-364.124856	1140.407766	93.034503	-428.202271	891.352605	1606.527785	-453.980315	953.6070120000001	1575.742035	-148.300003	1000.473423	1523.992374	-293.668141	890.037766	1613.671492	-292.629205	807.351982	1584.117492	-437.422582	932.915723	1427.744945	-56.94343	855.49248	1377.355007	-43.362817	875.104268	1320.121333	-7.909439	897.5068670000001	1252.867103	5.923847	831.5791379999999	1243.402446	-60.168829	767.931711	1531.673142	-489.048976	699.834421	1480.648025	-446.482329	667.90017	1446.993137	-506.05585	628.9549929999999	1373.527348	-526.381034	628.417718	1367.725059	-435.255375	942.486594	1227.067251	-52.755523	1054.331925	1338.819914	-178.904065	1050.542029	1272.542402	-196.200531	692.673043	1301.795847	-506.464878	867.050127	1317.940462	-494.098988	852.661109	1251.309092	-497.380904	
30	0.75	959.1536170000001	1100.147286	-426.848576	971.403094	1090.55012	-198.582318	801.78353	1142.883456	-355.189571	806.038199	1139.214101	-263.920615	806.1741929999999	852.311311	-149.28368	850.580202	764.6474459999999	-187.134486	748.807446	694.295529	-183.580373	899.768145	882.2400720000001	-471.919999	1008.331341	803.983354	-470.731341	991.838152	693.770515	-456.043553	651.927828	458.870287	-234.26791	579.542182	445.421225	-195.765693	513.721365	335.330908	-243.130064	405.284743	281.599474	-233.684188	443.29161	277.499777	-308.722696	1091.083672	475.150057	-423.728141	1015.88256	364.67131	-433.310938	1091.882062	284.027088	-393.667194	365.916666	317.014382	-302.765899	453.830839	112.012285	-272.877245	392.720925	158.537485	-210.238176	1004.999603	135.262574	-331.649762	1227.511656	121.335011	-357.729345	1167.555557	91.324769	-421.458574	892.005728	1606.986592	-455.547395	954.410441	1576.727885	-149.915279	1001.204621	1524.915177	-295.204266	890.952952	1614.516959	-294.40621	808.141397	1585.127554	-438.226106	933.675913	1428.955429	-58.434649	855.875622	1379.265769	-44.41547	875.4721479999999	1321.888022	-8.852880000000001	897.476166	1254.364615	5.040797	830.817467	1245.377691	-60.699164	767.806361	1532.892332	-488.100873	700.927918	1481.653119	-443.075399	667.076459	1448.503943	-501.690254	627.415688	1374.696462	-521.315376	629.062128	1369.116698	-430.011539	941.882606	1228.596363	-53.913872	1052.557049	1340.188711	-181.284411	1049.135728	1273.794378	-198.041007	691.806315	1303.25141	-502.521044	866.511342	1319.829087	-493.716602	852.361836	1253.170103	-496.953211	
